<?xml version="1.0" encoding="UTF-8" standalone="no"?>
<!-- Created with Inkscape (http://www.inkscape.org/) -->

<svg
   xmlns:dc="http://purl.org/dc/elements/1.1/"
   xmlns:cc="http://creativecommons.org/ns#"
   xmlns:rdf="http://www.w3.org/1999/02/22-rdf-syntax-ns#"
   xmlns:svg="http://www.w3.org/2000/svg"
   xmlns="http://www.w3.org/2000/svg"
   xmlns:xlink="http://www.w3.org/1999/xlink"
   xmlns:sodipodi="http://sodipodi.sourceforge.net/DTD/sodipodi-0.dtd"
   xmlns:inkscape="http://www.inkscape.org/namespaces/inkscape"
   width="13mm"
   height="10mm"
   viewBox="0 0 13 10"
   version="1.1"
   id="svg8"
   inkscape:version="0.92.4 (5da689c313, 2019-01-14)"
   sodipodi:docname="logo.svg">
  <defs
     id="defs2">
    <linearGradient
       inkscape:collect="always"
       xlink:href="#linearGradient2333"
       id="linearGradient1059"
       gradientUnits="userSpaceOnUse"
       x1="85.23214"
       y1="84.992973"
       x2="97.722328"
       y2="84.992973"
       gradientTransform="matrix(0.38238242,0,0,0.38238242,-15.250647,12.445487)" />
    <linearGradient
       inkscape:collect="always"
       id="linearGradient2333">
      <stop
         style="stop-color:#ff00ff;stop-opacity:1"
         offset="0"
         id="stop2329" />
      <stop
         style="stop-color:#800080;stop-opacity:1"
         offset="1"
         id="stop2331" />
    </linearGradient>
    <linearGradient
       inkscape:collect="always"
       xlink:href="#linearGradient2339"
       id="linearGradient1061"
       gradientUnits="userSpaceOnUse"
       x1="86.295143"
       y1="84.993309"
       x2="96.659294"
       y2="84.993309"
       gradientTransform="matrix(0.38238242,0,0,0.38238242,-15.250647,12.445487)" />
    <linearGradient
       id="linearGradient2339"
       inkscape:collect="always">
      <stop
         id="stop2335"
         offset="0"
         style="stop-color:#800080;stop-opacity:1" />
      <stop
         id="stop2337"
         offset="1"
         style="stop-color:#ff00ff;stop-opacity:1" />
    </linearGradient>
  </defs>
  <sodipodi:namedview
     id="base"
     pagecolor="#ffffff"
     bordercolor="#666666"
     borderopacity="1.0"
     inkscape:pageopacity="0.0"
     inkscape:pageshadow="2"
     inkscape:zoom="5.6"
     inkscape:cx="2.5420894"
     inkscape:cy="17.585855"
     inkscape:document-units="mm"
     inkscape:current-layer="layer1"
     showgrid="false"
     inkscape:window-width="1366"
     inkscape:window-height="705"
     inkscape:window-x="-8"
     inkscape:window-y="-8"
     inkscape:window-maximized="1"
     viewbox-width="13"
     units="in" />
  <metadata
     id="metadata5">
    <rdf:RDF>
      <cc:Work
         rdf:about="">
        <dc:format>image/svg+xml</dc:format>
        <dc:type
           rdf:resource="http://purl.org/dc/dcmitype/StillImage" />
        <dc:title></dc:title>
      </cc:Work>
    </rdf:RDF>
  </metadata>
  <g
     inkscape:label="Layer 1"
     inkscape:groupmode="layer"
     id="layer1"
     transform="translate(0,-287)">
    <g
       style="stroke-width:0.78480142"
       transform="matrix(2.6537811,0,0,2.6537811,-45.92102,172.75844)"
       id="g2374">
      <path
         style="font-style:normal;font-variant:normal;font-weight:normal;font-stretch:normal;font-size:6.23816919px;line-height:10.05000019;font-family:'Arial Rounded MT Bold';-inkscape-font-specification:'Arial Rounded MT Bold, Normal';font-variant-ligatures:normal;font-variant-caps:normal;font-variant-numeric:normal;font-feature-settings:normal;text-align:start;letter-spacing:0px;word-spacing:0px;writing-mode:lr-tb;text-anchor:start;fill:url(#linearGradient1059);fill-opacity:1;stroke:none;stroke-width:0.19095056"
         d="m 19.582787,43.129058 1.82e-4,1.91e-4 c -0.29215,0 -0.564463,0.07847 -0.818968,0.186305 -0.262739,0.111339 -0.507283,0.260552 -0.721328,0.454374 v -7.65e-4 c -0.370721,0.334147 -0.702047,0.80515 -0.702047,1.401391 0,0.378894 0.15322,0.75303 0.442561,1.007501 a 0.13255752,0.13989814 0 0 0 0.0014,0.0013 c 0.0038,0.0033 0.0081,0.0068 0.01203,0.0099 1.82e-4,9.6e-5 5.36e-4,-1.91e-4 7.27e-4,0 0.290008,0.245168 0.631606,0.312681 0.918552,0.312681 0.01371,0 0.02423,-0.0044 0.03732,-0.0058 0.04223,0.04978 0.07966,0.103086 0.150527,0.144674 0.0901,0.05288 0.241972,0.120783 0.429117,0.120783 0.280255,0 0.491903,-0.137787 0.611129,-0.25407 0.03388,-0.03304 0.0439,-0.05488 0.06279,-0.08251 0.03752,0.0078 0.07046,0.01828 0.11639,0.01828 0.115564,0 0.165401,-0.03866 0.217919,-0.06776 0.01549,0.009 0.01584,0.01369 0.03998,0.0213 0.09778,0.03124 0.196276,0.04648 0.29221,0.04648 0.346467,0 0.612741,-0.165998 0.786951,-0.299052 0.172754,-0.131941 0.329137,-0.289854 0.460603,-0.472109 0.0049,-0.0068 0.0086,-0.0123 0.01132,-0.01624 0.03602,-0.05221 0.0601,-0.113378 0.07111,-0.176971 0.03834,-0.05961 0.113381,-0.186288 0.113381,-0.403038 0,-0.218353 -0.08663,-0.487243 -0.29221,-0.686414 -0.01371,-0.06297 -0.04335,-0.168428 -0.160433,-0.274416 -0.181151,-0.164881 -0.41139,-0.256123 -0.644384,-0.256123 -0.109057,0 -0.180692,0.04133 -0.252765,0.07616 -0.06781,-0.207892 -0.168288,-0.396465 -0.320866,-0.522138 a 0.13255752,0.13989814 0 0 0 -0.0034,-0.0023 l -0.0073,-0.0063 a 0.13255752,0.13989814 0 0 0 -7.27e-4,0 0.13255752,0.13989814 0 0 0 -0.0014,-7.64e-4 c -2.71e-4,-1.92e-4 -4.59e-4,-1.92e-4 -7.26e-4,-5.74e-4 -9.56e-4,-7.65e-4 -10e-4,-0.0015 -0.0019,-0.0023 a 0.13255752,0.13989814 0 0 0 -0.0048,-0.0036 0.13255752,0.13989814 0 0 0 -0.0026,-0.0023 l -7.26e-4,-7.65e-4 c -0.01326,-0.01022 -0.02798,-0.01029 -0.04139,-0.01979 a 0.13255752,0.13989814 0 0 0 -0.02211,-0.0049 h 0.01344 c -0.26334,-0.182906 -0.551477,-0.240574 -0.789595,-0.240574 z m -0.872916,2.874653 0.06279,0.07336 c 1.6e-5,9.5e-5 0,7.65e-4 0,7.65e-4 0,0 -0.114978,0.01867 -0.190502,0.03099 z"
         id="path1041"
         inkscape:connector-curvature="0" />
      <path
         style="font-style:normal;font-variant:normal;font-weight:normal;font-stretch:normal;font-size:6.23816919px;line-height:10.05000019;font-family:'Arial Rounded MT Bold';-inkscape-font-specification:'Arial Rounded MT Bold, Normal';font-variant-ligatures:normal;font-variant-caps:normal;font-variant-numeric:normal;font-feature-settings:normal;text-align:start;letter-spacing:0px;word-spacing:0px;writing-mode:lr-tb;text-anchor:start;fill:#ffffff;fill-opacity:1;stroke:none;stroke-width:0.19095056"
         d="m 19.582787,43.26888 1.82e-4,1.91e-4 c -0.269587,0 -0.524795,0.07268 -0.769617,0.176411 -0.251245,0.10647 -0.482922,0.247727 -0.684536,0.430293 -0.353843,0.318935 -0.655881,0.753463 -0.655881,1.294798 0,0.339059 0.137276,0.673358 0.395155,0.90016 a 0.27392468,0.28909377 0 0 0 0.01132,0.0091 c 0.259623,0.219714 0.568928,0.282257 0.836478,0.282257 0.05593,0 0.04149,-0.009 0.07677,-0.01679 0.06201,0.06559 0.126607,0.144957 0.175115,0.173422 0.07527,0.04419 0.209631,0.103048 0.365086,0.103048 0.238063,0 0.420931,-0.119949 0.520743,-0.217293 0.04836,-0.04716 0.06842,-0.08666 0.09693,-0.129183 0.05869,0.01244 0.118596,0.02838 0.172461,0.02838 0.127817,0 0.167566,-0.04156 0.232778,-0.07635 0.02059,0.01275 0.02524,0.0234 0.0635,0.03528 0.08582,0.02742 0.171827,0.04107 0.254004,0.04107 0.306227,0 0.544494,-0.14741 0.709299,-0.273285 0.16317,-0.124618 0.309974,-0.272757 0.433186,-0.443734 0.0032,-0.0044 0.0063,-0.009 0.0094,-0.01344 a 0.27392468,0.28909377 0 0 0 0.05147,-0.145257 c 0.04108,-0.06563 0.107722,-0.133733 0.107722,-0.352075 0,-0.184304 -0.07593,-0.431749 -0.260195,-0.600356 -0.0051,-0.0047 -0.0095,-0.0029 -0.01521,-0.0071 -0.01246,-0.06396 -0.0073,-0.135462 -0.13107,-0.247534 -0.15718,-0.14323 -0.35812,-0.222333 -0.558241,-0.222333 -0.114424,0 -0.217343,0.04671 -0.276822,0.084 -0.01036,0.0065 -0.0077,0.005 -0.01609,0.01046 -0.01482,-0.0074 -0.03146,-0.01079 -0.04741,-0.01755 -0.0569,-0.23027 -0.165807,-0.429617 -0.314851,-0.552378 a 0.27392468,0.28909377 0 0 0 -0.0034,-0.0023 l -0.01203,-0.0099 c -4.59e-4,-2.87e-4 -9.56e-4,-0.0011 -0.0014,-0.0015 h -7.26e-4 l -0.0019,-0.0013 c -0.246265,-0.190058 -0.526503,-0.239317 -0.762191,-0.239317 z m 0.868495,0.732524 0.0014,0.0015 c -0.04751,0.0067 -0.123183,0.03425 -0.127001,0.03659 -0.0043,0.0025 0.08556,-0.037 0.125586,-0.03809 z m -1.131165,0.306152 0.148404,0.01848 c -0.0021,0.0033 -0.08166,0.117587 -0.124348,0.179771 l -0.05749,-0.04648 z m 0.151765,0.01848 0.269393,0.03304 c -0.0011,0.0083 -0.0034,0.02214 -0.0034,0.02203 1.2e-5,-6.9e-5 -0.0073,0.03028 -0.0073,0.03024 1.3e-5,-4.8e-5 -0.0308,0.06909 -0.03078,0.06907 l -0.01468,0.02203 -0.02211,0.02595 c 0,0 -0.187283,-0.198205 -0.19121,-0.202359 z m 2.016994,0.470616 0.05943,0.282069 c -5e-6,-8e-6 0.08456,-0.02248 0.161493,-0.04294 9.1e-5,0.0043 0.0018,0.07664 -0.0037,0.09558 l -0.347576,0.056 -0.05554,-0.236334 c 0.0018,-0.004 0.0041,-0.0091 0.01079,-0.0211 0.0034,-0.006 0.0066,-0.01331 0.01928,-0.03043 0.0064,-0.0086 0.03687,-0.04021 0.03679,-0.04014 -3.9e-5,3.9e-5 0.05681,-0.0396 0.05678,-0.03958 -1.6e-5,8e-6 0.06228,-0.02318 0.06226,-0.02315 z m -1.268249,0.674467 0.148404,0.09595 c 3.63e-4,0.0018 2.72e-4,0.0017 7.27e-4,0.0041 8.03e-4,0.005 0.0019,0.01031 0.0026,0.02483 1.81e-4,0.0036 1.1e-5,0.0075 0,0.01474 -10e-6,0.0072 -0.0034,0.04453 -0.0034,0.04443 3e-6,-2.6e-5 -0.0066,0.03323 -0.0066,0.03323 0,0 -0.187656,-0.05594 -0.234017,-0.06982 z m -0.389673,0.198999 c 9.1e-5,7.64e-4 0.0044,0.01629 0.008,0.02894 -4e-6,4e-6 -7.27e-4,0 -7.27e-4,0 1.5e-5,5.1e-5 -0.006,-0.02272 -0.0073,-0.02894 z m -1.185644,0.441306 c 0.0023,0.006 0.0047,0.01212 0.0057,0.01643 l -0.0014,-5.73e-4 c -0.0022,-0.0061 -0.0029,-0.01042 -0.0042,-0.01586 z"
         id="path1043"
         inkscape:connector-curvature="0" />
      <path
         style="font-style:normal;font-variant:normal;font-weight:normal;font-stretch:normal;font-size:6.23816919px;line-height:10.05000019;font-family:'Arial Rounded MT Bold';-inkscape-font-specification:'Arial Rounded MT Bold, Normal';font-variant-ligatures:normal;font-variant-caps:normal;font-variant-numeric:normal;font-feature-settings:normal;text-align:start;letter-spacing:0px;word-spacing:0px;writing-mode:lr-tb;text-anchor:start;fill:url(#linearGradient1061);fill-opacity:1;stroke:none;stroke-width:0.19095056"
         d="m 19.582965,43.558231 c -0.222941,0 -0.442715,0.0602 -0.667202,0.155316 -0.227658,0.09647 -0.432833,0.22265 -0.609007,0.382317 -0.319829,0.288275 -0.559657,0.6475 -0.559657,1.074704 0,0.256823 0.103785,0.508873 0.296101,0.678014 a 0.34204962,0.36099126 0 0 0 0.0074,0.0056 c 0.196501,0.166584 0.436965,0.218787 0.665257,0.218787 0.06601,0 0.125221,-0.03829 0.189795,-0.04798 0.0097,0.02695 0.0034,0.04216 0.01804,0.06702 0.05598,0.09517 0.115485,0.137927 0.177237,0.174171 0.06175,0.03624 0.125233,0.06646 0.231893,0.06646 0.159607,0 0.265263,-0.07254 0.335016,-0.140568 0.04966,-0.04844 0.08807,-0.107791 0.107545,-0.143929 l 7.27e-4,-0.0013 c 0.03033,-0.05529 0.04834,-0.0771 0.07482,-0.122834 0.03244,0.01506 0.06499,0.05216 0.09499,0.06142 0.0636,0.02052 0.12451,0.02894 0.177236,0.02894 0.111227,0 0.178886,-0.06 0.265325,-0.09875 0.03723,0.01835 0.07371,0.05916 0.108252,0.06982 0.06237,0.02016 0.120681,0.02894 0.176529,0.02894 0.223512,0 0.403324,-0.106877 0.548867,-0.21804 0.142908,-0.109147 0.26976,-0.237548 0.375698,-0.384557 a 0.34204962,0.36099126 0 0 0 0.006,-0.0084 v -7.64e-4 c 1.81e-4,-3.83e-4 0.106307,-0.172963 0.106307,-0.326687 0,-0.142421 -0.02923,-0.257496 -0.165032,-0.381756 -0.01307,-0.01196 -0.02282,-0.005 -0.03679,-0.01475 -0.03389,-0.08084 -0.04231,-0.180546 -0.108429,-0.23988 -0.112001,-0.102598 -0.240032,-0.151769 -0.380298,-0.151769 -0.112893,0 -0.167427,0.07581 -0.254004,0.11798 -0.0939,-0.06123 -0.190189,-0.11798 -0.296809,-0.11798 -0.0056,0 -0.0046,0.0026 -0.01008,0.003 -0.0043,-0.237944 -0.121234,-0.423371 -0.26267,-0.539873 a 0.34204962,0.36099126 0 0 0 -0.0021,-0.0013 c -0.0029,-0.0025 -0.0057,-0.0048 -0.0087,-0.0071 -0.184651,-0.14338 -0.400772,-0.184052 -0.602293,-0.184052 z m -0.112321,0.783301 h 0.02671 c 0.01635,0.06565 0.03414,0.137581 0.03414,0.137581 1e-6,0 -0.01138,0.01384 -0.01274,0.01549 -7.27e-4,-0.0015 -0.0014,-0.003 -0.0021,-0.0043 0.0015,-0.0011 0.01486,-0.0112 0.01486,-0.0112 0,0 -0.01341,0.0096 -0.01486,0.01064 -0.01781,-0.03753 -0.03904,-0.07437 -0.04333,-0.110887 -0.0067,-0.05656 -0.0026,-0.07003 -0.0026,-0.03734 z m 1.377739,0.09446 0.0055,0.005 c -9.95e-4,-0.0011 -0.0024,-3.82e-4 -0.0034,-0.0015 -0.0018,-0.0018 -2.72e-4,-0.0017 -0.0021,-0.0036 z m -0.749452,1.174017 c 3.63e-4,0.002 0.0066,0.02023 0.01592,0.04312 l -0.0058,-3.82e-4 c -0.0097,-0.02848 -0.01064,-0.0455 -0.01008,-0.04275 z"
         id="path1045"
         inkscape:connector-curvature="0" />
      <path
         style="font-style:normal;font-variant:normal;font-weight:normal;font-stretch:normal;font-size:6.23816919px;line-height:10.05000019;font-family:'Arial Rounded MT Bold';-inkscape-font-specification:'Arial Rounded MT Bold, Normal';font-variant-ligatures:normal;font-variant-caps:normal;font-variant-numeric:normal;font-feature-settings:normal;text-align:start;letter-spacing:0px;word-spacing:0px;writing-mode:lr-tb;text-anchor:start;fill:#ffffff;fill-opacity:1;stroke:none;stroke-width:0.19095056"
         d="m 19.582901,43.919556 c -0.162954,0 -0.341571,0.04525 -0.539507,0.129116 -0.198403,0.08408 -0.370721,0.191054 -0.51477,0.321734 -0.278344,0.250884 -0.439227,0.517449 -0.439227,0.800097 0,0.156419 0.06184,0.30286 0.17315,0.400757 a 0.1240457,0.13091497 0 0 0 0.002,0.0015 c 0.11641,0.09869 0.27138,0.138996 0.45126,0.138996 0.176744,0 0.35899,-0.05062 0.545523,-0.1397 -0.0405,0.08237 -0.0702,0.156367 -0.0702,0.238478 0,0.02388 0.0013,0.05353 0.0234,0.09102 0.02205,0.03748 0.07788,0.06985 0.118331,0.06985 0.04509,0 0.08188,-0.02391 0.102954,-0.04445 0.02064,-0.02012 0.03266,-0.03894 0.04279,-0.05785 l 6.88e-4,-0.0015 c 0.149432,-0.272516 0.250338,-0.422284 0.362346,-0.599723 -0.0056,0.02865 -0.02206,0.05588 -0.02206,0.08537 0,0.06627 0.02235,0.136973 0.06552,0.188385 0.04247,0.05059 0.09905,0.08052 0.159111,0.09877 0.02814,0.0094 0.05503,0.01272 0.07889,0.01272 0.104394,0 0.203954,-0.05054 0.308194,-0.124177 0.0027,0.0036 0.0018,0.0092 0.0047,0.01272 0.04264,0.05042 0.09913,0.08055 0.159111,0.09878 0.02709,0.009 0.05437,0.01272 0.07822,0.01272 0.117863,0 0.228849,-0.05764 0.348305,-0.148872 0.117417,-0.08968 0.219607,-0.193785 0.304183,-0.31115 a 0.1240457,0.13091497 0 0 0 0.0013,-0.0022 c 0.01816,-0.02633 0.04078,-0.05159 0.04078,-0.115005 0,-0.02875 -0.01287,-0.07761 -0.0468,-0.108655 -0.03145,-0.02879 -0.06314,-0.03248 -0.08557,-0.03316 0.0039,-0.01983 0.01939,-0.03522 0.01939,-0.05644 0,-0.06202 -0.03347,-0.127223 -0.07688,-0.165808 -0.04378,-0.04068 -0.103184,-0.0628 -0.158442,-0.0628 -0.122082,0 -0.232116,0.07325 -0.340953,0.173567 -0.01223,-0.04079 -0.02126,-0.08444 -0.05081,-0.110772 -0.04471,-0.04154 -0.103869,-0.06279 -0.159134,-0.06279 -0.05292,0 -0.101679,0.02539 -0.151088,0.04657 -0.01507,-0.0077 -0.02728,-0.01247 -0.03744,-0.01481 -2.74e-4,-6.8e-5 -0.001,7.2e-5 -0.0013,0 -0.07526,-0.01903 -0.226528,-0.02063 -0.365019,-0.02471 0.0017,-0.0015 0.0037,-0.0015 0.0053,-0.0029 0.118006,-0.09297 0.201898,-0.212629 0.201898,-0.352776 0,-0.10487 -0.05759,-0.200939 -0.135713,-0.265291 a 0.1240457,0.13091497 0 0 0 -0.0027,-0.0022 c -0.105464,-0.0819 -0.241526,-0.113594 -0.399783,-0.113594 z m 0.0381,0.354893 c 0.08564,0 0.137712,0.01644 0.149752,0.02399 a 0.1240457,0.13091497 0 0 0 0.0013,0 c 0.04546,0.028 0.04078,0.0332 0.04078,0.04304 0,-0.0018 -0.0034,0.02464 -0.07153,0.07338 -0.06863,0.0491 -0.125949,0.06773 -0.179836,0.06773 -0.03052,0 -0.03323,-0.0065 -0.02808,-0.0015 0.0044,0.0043 0.0026,0.0018 0.002,-0.01199 l 6.89e-4,-0.0022 0.0034,-0.06421 a 0.1240457,0.13091497 0 0 0 6.88e-4,-0.0078 c 0,-0.02929 -0.0028,-0.0602 -0.01872,-0.09807 0.03056,-0.0033 0.07134,-0.02258 0.09961,-0.02258 z m -0.385743,0.08679 c -0.003,0.02074 -0.01003,0.04223 -0.01003,0.0635 0,0.09379 0.02312,0.180867 0.07554,0.251884 -0.03694,0.0051 -0.105341,0.0025 -0.135712,0.0099 -0.05971,0.01333 -0.108576,0.02792 -0.153763,0.05362 -0.0456,0.02594 -0.106297,0.08119 -0.106297,0.166508 0,0.05779 0.04742,0.124694 0.08825,0.145347 0.04083,0.02066 0.07352,0.02186 0.106965,0.02186 0.02835,0 0.05791,-0.0038 0.09159,-0.01127 a 0.1240457,0.13091497 0 0 0 0.006,-0.0022 c -0.01047,0.0029 0.02989,-0.0044 0.08156,-0.0099 0.04672,-0.005 0.115565,-0.01105 0.19588,-0.01763 -0.06702,0.05851 -0.113108,0.116899 -0.20992,0.174271 a 0.1240457,0.13091497 0 0 0 -6.88e-4,7.27e-4 c -0.210346,0.126648 -0.386586,0.182738 -0.523462,0.182738 -0.09998,0 -0.166676,-0.02355 -0.216604,-0.06491 -0.04836,-0.04122 -0.06485,-0.07734 -0.06485,-0.148169 0,-0.122346 0.07685,-0.287835 0.268082,-0.485421 0.144924,-0.148637 0.296226,-0.253936 0.455271,-0.31891 0.01995,-0.0081 0.03279,-0.005 0.05215,-0.01199 z"
         id="path1047"
         inkscape:connector-curvature="0" />
      <g
         style="fill:#000000;fill-opacity:1;stroke-width:2.0523994"
         id="g1055"
         transform="matrix(0.38238242,0,0,0.38238242,-15.250647,12.445487)">
        <g
           id="g2356"
           style="fill:#000000;stroke-width:2.0523994">
          <path
             inkscape:connector-curvature="0"
             id="path1049"
             style="font-style:normal;font-variant:normal;font-weight:normal;font-stretch:normal;font-size:6.23816967px;line-height:10.05000019;font-family:'Alex Brush';-inkscape-font-specification:'Alex Brush, Normal';font-variant-ligatures:normal;font-variant-caps:normal;font-variant-numeric:normal;font-feature-settings:normal;text-align:start;letter-spacing:0px;word-spacing:0px;writing-mode:lr-tb;text-anchor:start;fill:#000000;fill-opacity:1;stroke:none;stroke-width:0.49937066"
             d="m 90.659678,83.554577 -0.01117,0.188585 q 0,0.383065 0.390887,0.383065 0.323877,0 0.653338,-0.235736 0.329461,-0.235735 0.329461,-0.477356 0,-0.241632 -0.268035,-0.406636 -0.178692,-0.111979 -0.55841,-0.111979 -0.563993,0 -1.262004,0.282877 -0.692426,0.282878 -1.301091,0.907573 -0.798526,0.82506 -0.798526,1.514583 0,0.406635 0.290373,0.654161 0.295957,0.247516 0.770604,0.247516 0.658923,0 1.53004,-0.524509 0.725931,-0.430206 1.088896,-0.913457 l 0.161939,-0.253411 q -0.100518,0 -0.832028,0.06481 -0.731515,0.05895 -0.837614,0.08843 -0.106103,0.02352 -0.173107,0.02352 -0.184273,0 -0.184273,-0.09428 0,-0.147329 0.424391,-0.241632 0.424389,-0.100178 1.435108,-0.100178 1.010721,0 1.334598,0.08247 0.05025,0.01181 0.05025,0.02947 0,0.06481 -0.385302,0.09428 -0.48023,0.04128 -0.491398,0.04128 -0.569578,0.7897 -1.474199,2.439831 -0.05025,0.09428 -0.100518,0.09428 -0.04468,0 -0.04468,-0.07661 0,-0.20627 0.31271,-0.795605 l 0.390886,-0.772024 q -0.357382,0.324133 -0.910207,0.60701 -0.720347,0.359494 -1.362516,0.359494 -0.636587,0 -0.977215,-0.288772 -0.335045,-0.294667 -0.335045,-0.783805 0,-0.901677 1.033054,-1.83283 0.519321,-0.471462 1.25642,-0.783804 0.7371,-0.312344 1.289925,-0.312344 0.558409,0 0.854366,0.229832 0.228946,0.188594 0.228946,0.424319 0,0.335924 -0.39647,0.648267 -0.390886,0.306457 -0.776187,0.306457 -0.519321,0 -0.519321,-0.63059 0,-0.241621 0.09493,-0.241621 0.07818,0 0.07818,0.165013 z" />
          <path
             inkscape:connector-curvature="0"
             id="path1051"
             style="font-style:normal;font-variant:normal;font-weight:normal;font-stretch:normal;font-size:6.23816967px;line-height:10.05000019;font-family:'Alex Brush';-inkscape-font-specification:'Alex Brush, Normal';font-variant-ligatures:normal;font-variant-caps:normal;font-variant-numeric:normal;font-feature-settings:normal;text-align:start;letter-spacing:0px;word-spacing:0px;writing-mode:lr-tb;text-anchor:start;fill:#000000;fill-opacity:1;stroke:none;stroke-width:0.49937066"
             d="m 92.508708,86.501231 q -0.06142,0 -0.111681,-0.01767 -0.357382,-0.106084 -0.357382,-0.424321 0,-0.41253 0.491401,-0.954723 0.491398,-0.542183 0.882285,-0.542183 0.128434,0 0.206611,0.07661 0.08376,0.07075 0.08376,0.176794 0,0.330029 -0.474646,0.630591 -0.469064,0.300553 -0.765021,0.300553 -0.04468,0 -0.07817,-0.01181 -0.08376,0.15912 -0.08376,0.335914 0,0.306458 0.273619,0.306458 0.279206,0 0.720348,-0.394855 0.340628,-0.288773 0.580745,-0.612906 0.05025,-0.07075 0.08376,-0.07075 0.03909,0 0.03909,0.03533 0,0.03533 -0.04468,0.10019 -0.301541,0.418426 -0.725932,0.742558 -0.42439,0.324133 -0.720347,0.324133 z M 93.5641,84.803959 q 0,-0.07076 -0.145185,-0.07076 -0.139602,0 -0.402054,0.22984 -0.351798,0.306448 -0.547241,0.642372 0.03351,0.01181 0.07259,0.01181 0.212196,0 0.563992,-0.235726 0.357383,-0.24163 0.446729,-0.524507 0.01117,-0.02947 0.01117,-0.053 z" />
          <path
             inkscape:connector-curvature="0"
             id="path1053"
             style="font-style:normal;font-variant:normal;font-weight:normal;font-stretch:normal;font-size:6.23816967px;line-height:10.05000019;font-family:'Alex Brush';-inkscape-font-specification:'Alex Brush, Normal';font-variant-ligatures:normal;font-variant-caps:normal;font-variant-numeric:normal;font-feature-settings:normal;text-align:start;letter-spacing:0px;word-spacing:0px;writing-mode:lr-tb;text-anchor:start;fill:#000000;fill-opacity:1;stroke:none;stroke-width:0.49937066"
             d="m 93.948356,86.501231 q -0.06142,0 -0.111682,-0.01767 -0.357381,-0.106084 -0.357381,-0.424321 0,-0.41253 0.4914,-0.954723 0.491399,-0.542183 0.882285,-0.542183 0.128434,0 0.206611,0.07661 0.08376,0.07075 0.08376,0.176794 0,0.330029 -0.474647,0.630591 -0.469064,0.300553 -0.76502,0.300553 -0.04468,0 -0.07818,-0.01181 -0.08376,0.15912 -0.08376,0.335914 0,0.306458 0.273619,0.306458 0.279206,0 0.720348,-0.394855 0.34063,-0.288773 0.580746,-0.612906 0.05025,-0.07075 0.08376,-0.07075 0.03909,0 0.03909,0.03533 0,0.03533 -0.04468,0.10019 -0.301541,0.418426 -0.725931,0.742558 -0.424391,0.324133 -0.720347,0.324133 z m 1.055392,-1.697272 q 0,-0.07076 -0.145186,-0.07076 -0.139602,0 -0.402054,0.22984 -0.351798,0.306448 -0.547241,0.642372 0.03351,0.01181 0.07259,0.01181 0.212196,0 0.563994,-0.235726 0.357381,-0.24163 0.446727,-0.524507 0.01117,-0.02947 0.01117,-0.053 z" />
        </g>
      </g>
    </g>
  </g>
</svg>
